HIERARCHY
ROOT Hips
{
	OFFSET 0.000000 0.000000 0.000000 
	CHANNELS 6 Xposition Yposition Zposition Zrotation Yrotation Xrotation
	JOINT LeftUpLeg
	{
		OFFSET 1.363060 -1.794630 0.839290 
		CHANNELS 3 Zrotation Yrotation Xrotation
		JOINT LeftLeg
		{
			OFFSET 2.448110 -6.726130 0.000000 
			CHANNELS 3 Zrotation Yrotation Xrotation
			JOINT LeftFoot
			{
				OFFSET 2.562200 -7.039590 0.000000 
				CHANNELS 3 Zrotation Yrotation Xrotation
				JOINT LeftToeBase
				{
					OFFSET 0.157640 -0.433110 2.322550 
					CHANNELS 3 Zrotation Yrotation Xrotation
					End Site
					{
						OFFSET 0.000000 0.000000 0.000000 
					}
				}
			}
		}
	}
	JOINT RightUpLeg
	{
		OFFSET -1.305520 -1.794630 0.839290 
		CHANNELS 3 Zrotation Yrotation Xrotation
		JOINT RightLeg
		{
			OFFSET -2.542530 -6.985550 0.000000 
			CHANNELS 3 Zrotation Yrotation Xrotation
			JOINT RightFoot
			{
				OFFSET -2.568260 -7.056230 0.000000 
				CHANNELS 3 Zrotation Yrotation Xrotation
				JOINT RightToeBase
				{
					OFFSET -0.164730 -0.452590 2.363150 
					CHANNELS 3 Zrotation Yrotation Xrotation
					End Site
					{
						OFFSET 0.000000 0.000000 0.000000 
					}
				}
			}
		}
	}
	JOINT Spine
	{
		OFFSET 0.028270 2.035590 -0.193380 
		CHANNELS 3 Zrotation Yrotation Xrotation
		JOINT Spine1
		{
			OFFSET 0.056720 2.048850 -0.042750 
			CHANNELS 3 Zrotation Yrotation Xrotation
			JOINT Neck1
			{
				OFFSET -0.054170 1.746240 0.172020 
				CHANNELS 3 Zrotation Yrotation Xrotation
				JOINT Head
				{
					OFFSET 0.104070 1.761360 -0.123970 
					CHANNELS 3 Zrotation Yrotation Xrotation
					End Site
					{
						OFFSET 0.000000 0.000000 0.000000 
					}
				}
			}
			JOINT LeftArm
			{
				OFFSET 3.362410 1.200890 -0.311210 
				CHANNELS 3 Zrotation Yrotation Xrotation
				JOINT LeftForeArm
				{
					OFFSET 4.983000 -0.000000 -0.000000 
					CHANNELS 3 Zrotation Yrotation Xrotation
					JOINT LeftHand
					{
						OFFSET 3.483560 -0.000000 -0.000000 
						CHANNELS 3 Zrotation Yrotation Xrotation
						JOINT LeftHandIndex1
						{
							OFFSET 0.715260 -0.000000 -0.000000 
							CHANNELS 3 Zrotation Yrotation Xrotation
							End Site
							{
								OFFSET 0.000000 0.000000 0.000000 
							}
						}
					}
				}
			}
			JOINT RightArm
			{
				OFFSET -3.136600 1.374050 -0.404650 
				CHANNELS 3 Zrotation Yrotation Xrotation
				JOINT RightForeArm
				{
					OFFSET -5.241900 -0.000000 -0.000000 
					CHANNELS 3 Zrotation Yrotation Xrotation
					JOINT RightHand
					{
						OFFSET -3.444170 -0.000000 -0.000000 
						CHANNELS 3 Zrotation Yrotation Xrotation
						JOINT RightHandIndex1
						{
							OFFSET -0.622530 -0.000000 -0.000000 
							CHANNELS 3 Zrotation Yrotation Xrotation
							End Site
							{
								OFFSET 0.000000 0.000000 0.000000 
							}
						}
					}
				}
			}
		}
	}
}
MOTION
Frames: 18
Frame Time: 0.041667
29.154504 17.285732 -0.715932 1.625887 -33.196126 2.886781 -7.756653 9.451189 -24.704426 6.544063 16.563152 49.223136 5.603787 -6.118708 7.126243 1.573900 -7.915700 -22.458200 -8.471688 11.524633 -24.349218 -9.694286 -18.028277 56.448051 1.341235 -9.355420 15.578902 -2.424400 9.699200 -28.008100 0.657760 -1.652640 -0.216601 1.895821 -0.994223 2.882549 12.303401 -19.190160 -8.744026 5.899700 -9.217900 -3.539200 -66.160801 -13.883712 55.891725 20.435290 -31.026652 -8.221843 0.757986 1.815178 15.245712 -7.125000 0.000000 0.000000 64.847473 10.488068 35.473215 -16.766891 27.646619 -5.394584 1.948293 0.439778 3.739747 7.125000 0.000000 0.000000 
29.212106 17.308441 -0.680263 1.704120 -32.638533 2.990321 -8.079238 9.040177 -24.558351 6.362405 16.485381 48.680495 5.538105 -5.894844 6.872670 1.515400 -7.774000 -22.029700 -8.190206 11.901921 -24.245408 -9.733051 -18.098631 56.485825 1.784235 -10.493454 14.614872 -1.876400 8.603800 -24.563700 0.672746 -1.748511 -0.251214 1.906112 -1.040485 2.862586 12.349008 -19.424921 -8.841873 5.929500 -9.327900 -3.555800 -65.887292 -13.676999 55.645284 19.073131 -29.738676 -7.546406 0.715566 1.908444 14.643232 -7.125000 0.000000 0.000000 64.870878 9.865140 33.100906 -15.031692 26.064308 -4.803646 2.032821 0.559553 3.615444 7.125000 0.000000 0.000000 
29.264170 17.342670 -0.645591 1.724224 -31.923672 3.181009 -8.321219 8.378217 -24.329987 6.142100 16.384751 48.021962 5.380150 -5.463734 6.667110 1.486300 -7.702300 -21.813300 -7.757955 12.152739 -24.099746 -9.689555 -18.130947 56.353617 2.125207 -11.297920 13.714052 -1.358100 7.376700 -20.836300 0.694639 -1.875614 -0.296568 1.892345 -1.101408 2.840563 12.379174 -19.677155 -8.908593 5.941000 -9.448000 -3.556300 -65.616775 -13.491669 55.353360 17.705086 -28.405133 -6.883748 0.678918 1.999748 14.175098 -7.125000 0.000000 0.000000 64.818268 9.157546 30.711843 -13.342535 24.487397 -4.275763 2.124471 0.678782 3.524907 7.125000 0.000000 0.000000 
29.310252 17.388309 -0.612913 1.689249 -31.049407 3.439894 -8.466079 7.470554 -24.013366 5.888791 16.262547 47.268638 5.150780 -4.884760 6.555493 1.483900 -7.696300 -21.795400 -7.170291 12.301165 -23.903949 -9.567961 -18.127621 56.056754 2.349041 -11.766414 12.971740 -0.977600 6.294000 -17.639800 0.724305 -2.034562 -0.349789 1.866006 -1.178032 2.807754 12.407419 -19.948023 -8.957274 5.939700 -9.578600 -3.541900 -65.351260 -13.325451 54.953863 16.346972 -27.045260 -6.242252 0.650233 2.084734 13.949905 -7.125000 0.000000 0.000000 64.704458 8.371379 28.335235 -11.705873 22.920499 -3.804744 2.217315 0.798384 3.578442 7.125000 0.000000 0.000000 
29.350131 17.444028 -0.583336 1.615865 -30.030354 3.744946 -8.516312 6.346038 -23.616618 5.607446 16.118315 46.435546 4.873584 -4.217542 6.581761 1.498800 -7.733100 -21.906200 -6.444599 12.382097 -23.670592 -9.380790 -18.095246 55.622133 2.457727 -11.925560 12.415039 -0.760100 5.567800 -15.535400 0.746729 -2.195831 -0.407376 1.795227 -1.255641 2.757891 12.451909 -20.273531 -9.016332 5.928900 -9.739800 -3.524700 -65.044563 -13.175869 54.436458 15.027096 -25.690109 -5.630715 0.635066 2.155943 14.011144 -7.125000 0.000000 0.000000 64.607517 7.497017 25.897549 -10.135686 21.375143 -3.386127 2.298452 0.913243 3.939855 7.125000 0.000000 0.000000 
29.383584 17.508055 -0.557304 1.540553 -28.894129 4.068188 -8.496567 5.063723 -23.162934 5.301431 15.951063 45.532552 4.592509 -3.557338 6.788592 1.506100 -7.751100 -21.960500 -5.614758 12.410677 -23.423776 -9.145300 -18.039100 55.089226 2.465389 -11.815977 12.009156 -0.691000 5.314300 -14.807300 0.797361 -2.398888 -0.471605 1.822836 -1.357863 2.689805 12.513120 -20.607900 -9.085353 5.926900 -9.901900 -3.494600 -64.840541 -13.041928 53.535917 13.715527 -24.330881 -5.045300 0.645771 2.204842 14.448296 -7.125000 0.000000 0.000000 64.415918 6.522909 23.529255 -8.663653 19.881190 -3.015743 2.359705 1.024257 4.696047 7.125000 0.000000 0.000000 
29.411056 17.579062 -0.534263 1.494098 -27.667136 4.393014 -8.439822 3.701716 -22.685078 4.974009 15.758639 44.565760 4.340709 -2.968977 7.203481 1.487500 -7.705200 -21.822300 -4.717296 12.376521 -23.196917 -8.877801 -17.963941 54.498489 2.385806 -11.465163 11.682861 -0.746800 5.520100 -15.398000 0.872516 -2.632957 -0.539833 1.954420 -1.479187 2.610672 12.626831 -20.952434 -9.181176 5.953000 -10.065700 -3.455200 -64.745965 -12.930328 52.188818 12.411873 -22.976146 -4.490900 0.684109 2.225691 15.300021 -7.125000 0.000000 0.000000 64.142763 5.437771 21.241612 -7.319723 18.474826 -2.692195 2.394219 1.128317 5.892733 7.125000 0.000000 0.000000 
29.433100 17.655828 -0.513216 1.487257 -26.379531 4.720179 -8.373183 2.358363 -22.221087 4.630188 15.538648 43.541088 4.127745 -2.463928 7.826017 1.451700 -7.616000 -21.553700 -3.778606 12.298152 -23.010187 -8.588509 -17.875390 53.877757 2.234039 -10.900577 11.348996 -0.871400 5.951700 -16.644400 0.951530 -2.866846 -0.608129 2.126826 -1.602398 2.532786 12.802956 -21.323241 -9.313057 6.006900 -10.241800 -3.414000 -64.696556 -12.838526 50.417897 11.127788 -21.641286 -3.975062 0.744951 2.216446 16.522373 -7.125000 0.000000 0.000000 63.863351 4.237820 19.002271 -6.123675 17.184867 -2.413565 2.399901 1.216979 7.541815 7.125000 0.000000 0.000000 
29.450270 17.738022 -0.493277 1.517019 -25.049682 5.050501 -8.304463 1.122345 -21.804344 4.275221 15.290003 42.468575 3.976666 -2.081975 8.648781 1.408400 -7.506400 -21.224500 -2.811041 12.215764 -22.859870 -8.282749 -17.777117 53.236471 2.023371 -10.158240 10.960193 -0.974300 6.283900 -17.610300 1.043257 -3.119170 -0.680732 2.361290 -1.736908 2.454770 13.015326 -21.692552 -9.461012 6.082600 -10.414500 -3.366500 -64.714695 -12.741463 48.143647 9.855687 -20.326283 -3.502100 0.816885 2.180664 18.084796 -7.125000 0.000000 0.000000 63.554244 2.919408 16.934115 -5.095466 16.047103 -2.178373 2.382897 1.289172 9.547128 7.125000 0.000000 0.000000 
29.463231 17.825534 -0.473891 1.571432 -23.669177 5.394903 -8.227624 0.034481 -21.457560 3.914819 15.014084 41.365770 3.912276 -1.869933 9.663063 1.361100 -7.384600 -20.859800 -1.811197 12.121366 -22.753500 -7.966260 -17.669741 52.573936 1.770240 -9.302372 10.551809 -1.030000 6.455700 -18.112400 1.132433 -3.387791 -0.758579 2.594603 -1.879195 2.372908 13.252006 -22.053966 -9.619429 6.168900 -10.583600 -3.319000 -64.720186 -12.617691 45.459013 8.627447 -19.058535 -3.081150 0.882870 2.127048 19.865203 -7.125000 0.000000 0.000000 63.289314 1.485576 15.104796 -4.253016 15.099864 -1.989849 2.355537 1.340384 11.775854 7.125000 0.000000 0.000000 
29.472647 17.917365 -0.455281 1.642837 -22.218913 5.754719 -8.136532 -0.884178 -21.202486 3.556269 14.717060 40.260564 3.950997 -1.862409 10.843994 1.320900 -7.278900 -20.544400 -0.769924 11.984507 -22.704305 -7.645792 -17.552708 51.884555 1.507675 -8.445082 10.178925 -1.118600 6.718700 -18.884600 1.212918 -3.684850 -0.845391 2.798124 -2.033949 2.275874 13.492206 -22.405207 -9.764623 6.253200 -10.749300 -3.267300 -64.659913 -12.432827 42.486677 7.490044 -17.880901 -2.719913 0.926001 2.066197 21.681099 -7.125000 0.000000 0.000000 63.105241 -0.071686 13.694734 -3.613117 14.387031 -1.847958 2.326338 1.372862 14.020857 7.125000 0.000000 0.000000 
29.479515 18.011745 -0.437225 1.726329 -20.691577 6.134507 -8.027609 -1.607558 -21.069057 3.208122 14.407920 39.191222 4.111269 -2.106202 12.156437 1.296300 -7.213600 -20.349600 0.308159 11.793992 -22.728845 -7.323731 -17.424599 51.168829 1.241431 -7.604226 9.863207 -1.283400 7.178900 -20.246600 1.293837 -4.028902 -0.949296 2.996044 -2.210058 2.150530 13.685546 -22.743992 -9.826729 6.311100 -10.909200 -3.182800 -64.538916 -12.147493 39.362388 6.493950 -16.842066 -2.420803 0.935116 2.005095 23.319947 -7.125000 0.000000 0.000000 62.968601 -1.779556 13.011595 -3.193070 13.962429 -1.750109 2.290070 1.404114 15.971536 7.125000 0.000000 0.000000 
29.484499 18.106124 -0.418947 1.812378 -19.102278 6.549192 -7.896553 -2.122185 -21.086346 2.878073 14.096663 38.200367 4.412438 -2.661862 13.568003 1.271500 -7.146700 -20.150900 1.407401 11.560368 -22.851200 -6.998862 -17.285293 50.435757 0.937745 -6.676641 9.608594 -1.501100 7.738800 -21.923400 1.356674 -4.386405 -1.071055 3.120673 -2.389106 1.998921 13.807010 -23.100235 -9.772343 6.321800 -11.080600 -3.057200 -64.277409 -11.727072 36.463917 5.719089 -16.022488 -2.184472 0.897625 1.945621 24.443351 -7.125000 0.000000 0.000000 62.946447 -3.660282 13.163016 -2.997035 13.854564 -1.694606 2.238635 1.444704 17.395413 7.125000 0.000000 0.000000 
29.489595 18.197956 -0.399451 1.885006 -17.465651 7.001466 -7.738890 -2.428209 -21.265832 2.571627 13.795020 37.330675 4.866211 -3.587947 15.055733 1.208100 -6.972900 -19.635200 2.525694 11.288574 -23.084933 -6.673626 -17.136346 49.705248 0.556594 -5.542583 9.429468 -1.719500 8.255600 -23.493200 1.416213 -4.768926 -1.206468 3.197161 -2.577957 1.839561 13.851185 -23.457294 -9.612938 6.289000 -11.252900 -2.893000 -63.909214 -11.170698 33.980464 5.192643 -15.458720 -2.006817 0.811705 1.886031 24.816846 -7.125000 0.000000 0.000000 62.946574 -5.681202 14.267098 -3.014955 14.063284 -1.678292 2.168468 1.506864 18.134674 7.125000 0.000000 0.000000 
29.496685 18.283917 -0.377961 1.927247 -15.800555 7.480341 -7.555734 -2.510792 -21.601056 2.303659 13.520408 36.621735 5.397689 -4.753955 16.486444 1.133200 -6.760800 -19.008500 3.673959 10.957192 -23.439059 -6.354484 -16.981673 49.005778 0.060881 -4.088463 9.374366 -1.885400 8.623300 -24.623700 1.490382 -5.184517 -1.351554 3.260450 -2.781817 1.683842 13.826009 -23.789327 -9.385031 6.229700 -11.410800 -2.708200 -63.494258 -10.483074 31.989207 4.902607 -15.151563 -1.884200 0.691583 1.821812 24.392115 -7.125000 0.000000 0.000000 62.854329 -7.818734 16.380286 -3.236277 14.574528 -1.699642 2.077019 1.599181 18.098580 7.125000 0.000000 0.000000 
29.507430 18.361459 -0.353923 1.936685 -14.144259 7.963875 -7.379178 -2.336555 -22.075088 2.093669 13.292602 36.107324 5.916465 -5.970151 17.700571 1.059200 -6.543600 -18.370200 4.847730 10.563328 -23.912748 -6.050269 -16.827362 48.365344 -0.561230 -2.259275 9.499239 -1.941100 8.742300 -24.992600 1.568799 -5.601254 -1.492671 3.274172 -2.986160 1.560448 13.747413 -24.098379 -9.127358 6.152300 -11.556500 -2.522300 -63.010916 -9.694437 30.586494 4.831790 -15.093468 -1.814270 0.555087 1.748736 23.239953 -7.125000 0.000000 0.000000 62.662055 -10.027458 19.348424 -3.647069 15.350803 -1.759550 1.961864 1.719613 17.336852 7.125000 0.000000 0.000000 
29.523049 18.428255 -0.328002 1.931513 -12.525191 8.418491 -7.258926 -1.898475 -22.639511 1.969917 13.137086 35.815846 6.303653 -6.926380 18.459629 1.027900 -6.449200 -18.093500 6.033122 10.133847 -24.475712 -5.770501 -16.681767 47.804861 -1.269244 -0.130457 9.839108 -1.847900 8.541800 -24.372300 1.647305 -6.008392 -1.619717 3.238466 -3.187558 1.486869 13.627484 -24.374226 -8.875948 6.067900 -11.684600 -2.353800 -62.464039 -8.826376 29.714272 4.944284 -15.252604 -1.791246 0.417666 1.662849 21.547643 -7.125000 0.000000 0.000000 62.333105 -12.260673 22.970482 -4.228812 16.342144 -1.857917 1.818063 1.863433 16.022122 7.125000 0.000000 0.000000 
29.543320 18.482645 -0.301527 1.929144 -10.965450 8.807223 -7.232180 -1.218421 -23.219718 1.957252 13.073139 35.754674 6.458969 -7.308204 18.546251 1.072600 -6.583600 -18.487500 7.225405 9.666079 -25.095118 -5.522379 -16.552365 47.333606 -1.977142 2.095773 10.378416 -1.669300 8.140200 -23.140900 1.713032 -6.384565 -1.723019 3.138313 -3.376636 1.470032 13.487810 -24.620765 -8.659441 5.986100 -11.798900 -2.218200 -61.826784 -7.905450 29.310985 5.204582 -15.591713 -1.808785 0.286728 1.562604 19.522205 -7.125000 0.000000 0.000000 61.898331 -14.480183 26.940493 -4.949289 17.482170 -1.993319 1.646405 2.015294 14.437606 7.125000 0.000000 0.000000 
